# xmcd
#
# Track frame offsets:
#	150
#	16921
#	33744
#	52251
#	75364
#	96795
#	105902
#	123321
#	143271
#	159499
#	180721
#
# Disc length: 2658 seconds
#
# Revision: 0
# Processed by: cddbd v1.5.2PL0 Copyright (c) Steve Scherf et al.
# Submitted via: audiograbber 1.83.01
#
DISCID=7e0a600b
DTITLE=Golden Earring - Complete Studio Recordings [CD 21) - Face It [remastere
DTITLE=d 2017]
DYEAR=1994
DGENRE=Rock
TTITLE0=Angel
TTITLE1=Hold Me Now
TTITLE2=Liquid Soul
TTITLE3=Minute By Minute
TTITLE4=Johnny Make Believe
TTITLE5=Space Ship
TTITLE6=The Unforgettable Dream
TTITLE7=I Can't Do Without Your Kiss
TTITLE8=Freedom Don't Last Forever
TTITLE9=Maximum Make-Up
TTITLE10=Legalize Telepathy
EXTD=
EXTT0=
EXTT1=
EXTT2=
EXTT3=
EXTT4=
EXTT5=
EXTT6=
EXTT7=
EXTT8=
EXTT9=
EXTT10=
PLAYORDER=
